# xmcd CD database file
#
# Track frame offsets:
#	182
#	16120
#	33312
#	48470
#	67947
#	88495
#	107740
#	127357
#	144490
#
# Disc length: 2204 seconds
#
# Revision: 0
# Processed by: cddbd v1.5.2PL0 Copyright (c) Steve Scherf et al.
# Submitted via: CDex 1.51
#
DISCID=7d089a09
DTITLE=Travis Tritt - Joe Diffie - Lee Roy Parnell - Ten Feet Tall Tour '94
DYEAR=1994
DGENRE=Country
TTITLE0=Ten Feet Tall and Bulletproof
TTITLE1=Honky Tonk Attitude
TTITLE2=Take These Chains From My Heart
TTITLE3=Foolish Pride
TTITLE4=John Deere Green
TTITLE5=I'm Holding My Own
TTITLE6=Put Some Drive in Your County
TTITLE7=Prop Me Up Beside the Jukebox (If I Die)
TTITLE8=On the Road
EXTD=YEAR: 1994
EXTT0=
EXTT1=
EXTT2=
EXTT3=
EXTT4=
EXTT5=
EXTT6=
EXTT7=
EXTT8=
PLAYORDER=
